<svg xmlns="http://www.w3.org/2000/svg"
    xmlns:xlink="http://www.w3.org/1999/xlink" viewBox="0 0 402 24" class="site-header-logo">
    <defs>
        <path id="wb-logo-path-a" d="M0 23.769h401.781V.057H0z"></path>
    </defs>
    <g fill="none" fill-rule="evenodd">
        <path fill="#1B2B39" d="M25.808 0l-4.226 14.654h-.099L16.58.722h-2.234L9.693 14.654h-.099L5.16 0H0v.722L7.964 23h3.101l4.391-12.223h.099L20.042 23h3.074L31 .722V0zM43 .003V23h4.798V9.859L60.484 23H62V.003h-4.83v13.043L44.607 0zM81.169 0v13.044L68.592 0H67v23h4.798V9.857L84.489 23H86V0zM91 0v23h14v-4.468h-9.162v-5.258h8.33V8.97h-8.33V4.304h8.906V0z"></path>
        <path fill="#1B2B39" d="M113.459 13.82v5.317h5.467c1.68 0 2.668-.997 2.766-2.559.033-.93-.33-1.794-1.02-2.293-.56-.398-1.22-.465-1.977-.465h-5.236zm0-9.339v5.284h4.512c1.68 0 2.733-.93 2.766-2.492.033-1.695-1.054-2.792-2.766-2.792h-4.512zm9.814 6.913c2.14.897 3.293 2.791 3.293 5.184 0 4.088-2.7 6.88-7.311 6.88h-10.703V.193h9.781c4.216 0 7.245 2.56 7.245 6.912 0 1.695-.856 3.39-2.305 4.288zm12.383 4.021h6.388l-3.194-7.677-3.194 7.677zm-1.614 4.188l-1.779 3.854h-5.137v-.664L137.63.194h2.457l10.454 22.599v.664h-5.104l-1.811-3.854h-9.583z"></path>
        <mask id="wb-logo-mask-b" fill="#fff">
            <use xlink:href="#wb-logo-path-a"></use>
        </mask>
        <path fill="#1B2B39" d="M33.722 23.458h4.972V.195h-4.972zM161.28.087c4.518 0 9.036 2.198 10.336 7.544h-4.777c-1.14-2.23-2.958-3.116-5.559-3.116-4.257 0-6.663 3.247-6.663 7.347 0 4.362 2.6 7.315 6.663 7.315 3.12 0 5.395-.952 6.37-4.396h-6.207V10.65h10.661c.13 2.197.064 4.33-.683 6.428-1.722 4.625-5.785 6.56-10.14 6.56-6.014 0-11.603-4.165-11.603-11.775S155.3.087 161.28.087m24.8 4.747c-3.206 0-6.442 2.16-6.442 6.982 0 5.196 3.312 7.046 6.41 7.046 2.972 0 6.442-1.845 6.442-7.046 0-4.823-3.22-6.982-6.41-6.982m-.095 18.774c-5.536 0-11.494-3.69-11.494-11.792 0-8.08 6.007-11.76 11.589-11.76 5.535 0 11.493 3.68 11.493 11.76 0 6.943-4.765 11.792-11.588 11.792" mask="url(#wb-logo-mask-b)"></path>
        <path fill="#AAC5CA" d="M281.192 15.885c0 3.662-2.347 5.937-6.124 5.937-3.814 0-6.182-2.275-6.182-5.937V2.019h-1.84v13.895c0 4.662 3.149 7.675 8.022 7.675 4.82 0 7.934-3.013 7.934-7.675V2.019h-1.81v13.866zm16.464-4.273l-.402-.048c-2.705-.316-5.77-.674-5.77-3.842 0-3.184 3.104-4.313 5.764-4.313 2.847 0 5.966 1.05 6.183 3.994l.012.163h1.75l-.012-.186c-.213-3.555-3.179-5.676-7.933-5.676-3.794 0-7.635 2.077-7.635 6.048 0 4.526 4.304 5.07 7.759 5.505l.26.038c3.127.46 6.36.937 6.276 4.24-.084 3.131-3.341 4.557-6.332 4.557-5.082 0-6.634-2.718-6.75-4.325l-.012-.163h-1.69l.012.187c.251 4.413 4.735 5.978 8.5 5.978 3.972 0 8.02-1.915 8.112-6.195.09-4.43-3.774-5.348-8.092-5.962m11.528-7.855h6.865v19.697h1.84V3.757h6.863V2.019h-15.568zm22.124-.031h6.362c3.165 0 5.376 2.058 5.376 5.005 0 2.946-2.21 5.004-5.376 5.004h-6.362V3.726zm13.55 5.035c0-3.97-2.956-6.741-7.188-6.741h-8.202v21.433h1.87V15.41h6.07l6.333 7.976.053.066h1.928v-.478l-6.353-7.796c3.345-.622 5.488-3.112 5.488-6.418zm24.069 4.482h10.117v-1.705h-10.117V3.697h10.564V2.02h-12.405v21.433h12.495v-1.735h-10.654zm24.76-1.631l-.403-.048c-2.705-.316-5.769-.674-5.769-3.842 0-3.184 3.105-4.313 5.764-4.313 2.847 0 5.966 1.05 6.183 3.994l.012.163h1.75l-.012-.186c-.213-3.555-3.179-5.676-7.933-5.676-3.794 0-7.635 2.077-7.635 6.048 0 4.526 4.304 5.07 7.759 5.505l.26.038c3.127.46 6.36.937 6.277 4.24-.085 3.131-3.342 4.557-6.333 4.557-5.082 0-6.634-2.718-6.75-4.325l-.012-.163h-1.69l.012.187c.251 4.413 4.735 5.978 8.5 5.978 3.97 0 8.02-1.915 8.113-6.195.09-4.43-3.775-5.348-8.093-5.962M202.253 3.606h3.701v18.261h-3.701v1.586h9.242v-1.586h-3.7V3.606h3.7V2.02h-9.242zm30.712 8.653l.141 7.138-13.962-17.313-.052-.065h-.869v21.435h1.871V12.673l-.14-6.689 14.119 17.47h.763V2.019h-1.871zm12.215-8.472h5.465c4.993 0 8.481 3.693 8.481 8.98 0 5.252-3.5 8.92-8.51 8.92h-5.437v-17.9zm5.496-1.767h-7.367v21.433h7.367c6.06 0 10.291-4.407 10.291-10.717 0-6.209-4.328-10.716-10.29-10.716zm99.915 1.586h3.701v18.261h-3.701v1.586h9.242v-1.586h-3.7V3.606h3.7V2.02h-9.242z" mask="url(#wb-logo-mask-b)"></path>
    </g>
</svg>